<?xml version="1.0" encoding="iso-8859-1"?><!-- Generator: Adobe Illustrator 19.2.1, SVG Export Plug-In . SVG Version: 6.00 Build 0)  --><svg xmlns="http://www.w3.org/2000/svg" xmlns:xlink="http://www.w3.org/1999/xlink" viewBox="0 0 50 50" width="50px" height="50px"><rect x="3" y="20" style="fill:none;stroke:#000000;stroke-width:2;stroke-linecap:round;stroke-linejoin:round;stroke-miterlimit:10;" width="44" height="24"/><line style="fill:none;stroke:#000000;stroke-width:2;stroke-linecap:round;stroke-linejoin:round;stroke-miterlimit:10;" x1="44" y1="20" x2="27" y2="9"/><line style="fill:none;stroke:#000000;stroke-width:2;stroke-linecap:round;stroke-linejoin:round;stroke-miterlimit:10;" x1="23" y1="9" x2="6" y2="20"/><circle style="fill:none;stroke:#000000;stroke-width:2;stroke-miterlimit:10;" cx="25" cy="8" r="2"/><path style="fill:none;stroke:#000000;stroke-width:2;stroke-miterlimit:10;" d="M11.5,27L11.5,27C10.119,27,9,28.119,9,29.5v5c0,1.381,1.119,2.5,2.5,2.5h0c1.381,0,2.5-1.119,2.5-2.5v-5C14,28.119,12.881,27,11.5,27z"/><path style="fill:none;stroke:#000000;stroke-width:2;stroke-miterlimit:10;" d="M20,27h-2v6h2c1.657,0,3-1.343,3-3v0C23,28.343,21.657,27,20,27z"/><polyline style="fill:none;stroke:#000000;stroke-width:2;stroke-miterlimit:10;" points="32,27 27,27 27,37 32,37 "/><polyline style="fill:none;stroke:#000000;stroke-width:2;stroke-miterlimit:10;" points="35,38 35,27 36,27 39,37 40,37 40,26 "/><line style="fill:none;stroke:#000000;stroke-width:2;stroke-miterlimit:10;" x1="18" y1="38" x2="18" y2="32"/><line style="fill:none;stroke:#000000;stroke-width:2;stroke-miterlimit:10;" x1="27" y1="32" x2="31" y2="32"/></svg>