<svg xmlns="http://www.w3.org/2000/svg"  viewBox="0 0 128 128" width="128px" height="128px"><path d="M 14 1 C 6.8 1 1 6.8 1 14 L 1 114 C 1 121.2 6.8 127 14 127 L 64 127 C 65.7 127 67 125.7 67 124 C 67 122.3 65.7 121 64 121 L 14 121 C 10.1 121 7 117.9 7 114 L 7 35 L 121 35 L 121 64 C 121 65.7 122.3 67 124 67 C 125.7 67 127 65.7 127 64 L 127 14 C 127 6.8 121.2 1 114 1 L 14 1 z M 14 7 L 114 7 C 117.9 7 121 10.1 121 14 L 121 29 L 7 29 L 7 14 C 7 10.1 10.1 7 14 7 z M 18 15 C 16.3 15 15 16.3 15 18 C 15 19.7 16.3 21 18 21 L 22 21 C 23.7 21 25 19.7 25 18 C 25 16.3 23.7 15 22 15 L 18 15 z M 34 15 C 32.3 15 31 16.3 31 18 C 31 19.7 32.3 21 34 21 L 38 21 C 39.7 21 41 19.7 41 18 C 41 16.3 39.7 15 38 15 L 34 15 z M 73.722656 70.486328 C 72.925781 70.481641 72.1 70.800391 71.5 71.400391 C 70.7 72.200391 70.399219 73.300391 70.699219 74.400391 L 82.400391 114.40039 C 82.700391 115.40039 83.5 116.2 84.5 116.5 C 84.7 116.6 84.999219 116.59961 85.199219 116.59961 C 85.999219 116.59961 86.800781 116.29922 87.300781 115.69922 L 99.300781 103.69922 L 112.90039 117.30078 C 114.10039 118.50078 115.99961 118.50078 117.09961 117.30078 C 118.29961 116.10078 118.29961 114.19961 117.09961 113.09961 L 103.5 99.5 L 115.5 87.5 C 116.6 86.5 116.89961 85.400391 116.59961 84.400391 C 116.29961 83.400391 115.6 82.600781 114.5 82.300781 L 74.5 70.599609 C 74.25 70.524609 73.988281 70.487891 73.722656 70.486328 z M 78.199219 77.900391 L 108.09961 86.599609 L 86.900391 107.80078 L 78.199219 77.900391 z"/></svg>